<svg viewBox="0 0 133.34 133.34" xmlns="http://www.w3.org/2000/svg" id="Layer_1"><defs><style>.cls-1{fill:none;}.cls-1,.cls-2,.cls-3{stroke-width:0px;}.cls-2{fill:#653126;}.cls-3{fill:#f6db04;}</style></defs><rect ry="20.21" rx="20.21" height="133.34" width="133.34" class="cls-1"></rect><g id="flower"><path d="M92.91,75.57c3.23.02,6.43.53,9.51,1.51,5.69,1.75,10.66,5.31,14.13,10.14,1.07,1.52,2.33,2.89,3.75,4.09l1.49,1.22c.25.21.29.57.08.82-.02.03-.05.05-.07.07l-1.47,1.25c-.33.27-3.37,2.7-10.11,2.7-.65,0-1.33-.02-2.01-.07-3.44-.23-8.29-2.21-14.39-5.88-4.41-2.65-7.84-5.21-7.98-5.32l-.96-.73c-.21-.16-.29-.44-.2-.69l3.17-8.29c.07-.19.24-.33.43-.37l.87-.18c1.24-.22,2.5-.32,3.76-.3h0Z" class="cls-2" id="Path_149688"></path><path d="M87.17,84.35s13.73,10.26,21.19,10.77c7.47.5,10.55-2.11,10.55-2.11-1.59-1.34-3-2.88-4.19-4.58-3.2-4.41-7.75-7.65-12.97-9.26-3.91-1.33-8.07-1.73-12.16-1.16l-2.42,6.34Z" class="cls-3" id="Path_149689"></path><path d="M72.98,91.13c1.44,2.15,2.76,4.39,3.93,6.7,2.68,5.29,3.64,9.24,2.92,12.06-1.14,4.06-2.74,7.97-4.77,11.66l-1,1.79c-.18.32-.58.43-.9.25,0,0,0,0,0,0-.05-.03-.1-.07-.15-.11l-1.43-1.46c-2.01-2.04-3.9-4.2-5.66-6.46-1.66-2.26-5.56-7.55-3.95-22.99l.2-1.85,10.13-.6.7,1.02Z" class="cls-2" id="Path_149690"></path><path d="M71.16,92.37s7.92,11.54,6.54,16.98c-1.09,3.87-2.62,7.6-4.56,11.13-1.94-1.97-3.76-4.04-5.46-6.22-1.98-2.69-4.98-7.65-3.54-21.46l7.02-.42Z" class="cls-3" id="Path_149691"></path><path d="M32.7,61.05c2.28,0,4.56.23,6.8.67l1.23.24,3.64,10.13-.95.99c-3.17,2.89-7.15,4.76-11.4,5.36-1.34.21-2.7.31-4.07.3-6.17-.18-12.26-1.45-17.97-3.77l-2.97-1.21c-.29-.12-.43-.45-.31-.74.05-.11.13-.21.23-.27l2.74-1.68c1.49-.88,2.92-1.87,4.26-2.96.67-.72,6.91-7.05,18.77-7.05" class="cls-2" id="Path_149692"></path><path d="M41.85,71.56c-2.84,2.55-6.38,4.19-10.17,4.71-6.68,1.09-15.69-1.24-20.85-3.33,1.66-.99,3.24-2.1,4.72-3.33.94-1.01,8.86-8.54,23.54-5.72l2.76,7.68Z" class="cls-3" id="Path_149693"></path><path d="M80.86,86.94c12.69,6.26,14.33,17.61,14.95,21.88l.05.33c.08.54.65,2.92,1.04,4.45l.55,2.2c.08.32-.12.65-.44.73,0,0,0,0,0,0-.07.02-.14.02-.21.02l-2.26-.22c-4.46-.66-8.72-2.32-12.45-4.84-6.49-4.27-12.05-17.83-12.28-18.4l-.59-1.46c-.12-.3.02-.65.33-.78l10.17-4.24c.16-.07.34-.06.5.02l.65.32Z" class="cls-2" id="Path_149694"></path><path d="M71.85,92.25s5.46,13.45,11.46,17.4c3.44,2.32,7.35,3.85,11.46,4.48,0,0-.95-3.78-1.08-4.67-.55-3.71-1.8-14.65-13.79-20.57l-8.04,3.36Z" class="cls-3" id="Path_149695"></path><path d="M93.37,62.04c11.67-7.99,22.41-3.88,26.45-2.33l.32.12c.51.2,2.88.86,4.41,1.27l2.19.59c.32.09.51.42.42.74-.02.07-.05.13-.09.19l-1.3,1.86c-2.76,3.56-6.28,6.46-10.31,8.48-6.91,3.57-21.49,1.79-22.11,1.71l-1.56-.19c-.33-.04-.56-.34-.52-.67l1.25-10.92c.02-.17.12-.33.26-.43l.59-.41Z" class="cls-2" id="Path_149696"></path><path d="M93.64,72.48s14.44,1.81,20.83-1.49c3.71-1.86,6.96-4.52,9.52-7.78,0,0-3.77-1.02-4.61-1.34-3.52-1.33-13.71-5.58-24.74,1.98l-.99,8.63Z" class="cls-3" id="Path_149697"></path><path d="M101.71,67.35c1.97,0,3.94.09,5.91.31,2.04.21,4.04.66,5.97,1.35,1.65.64,3.21,1.5,4.63,2.56,3.39,2.59,6.28,5.78,8.5,9.41l1.22,2.08c.16.28.07.63-.21.79-.07.04-.14.06-.22.07l-2.39.33c-4.07.51-8.16.78-12.26.79-3.63.07-7.25-.28-10.8-1.03-9.13-2.18-13.1-6.11-13.27-6.28l-.74-.74c-.16-.16-.21-.4-.13-.62l3.1-7.95c.08-.2.25-.34.46-.37l.95-.13c3.08-.38,6.18-.57,9.29-.58Z" class="cls-2" id="Path_149698"></path><path d="M90.35,76.19s3.58,3.62,12.21,5.68c8.63,2.06,22.25.2,22.25.2-2.24-3.66-5.21-6.82-8.71-9.31-1.04-.69-2.15-1.26-3.31-1.71-1.96-.69-4-1.12-6.08-1.29-4.67-.36-9.36-.25-14.01.33l-2.37,6.09Z" class="cls-3" id="Path_149699"></path><path d="M59.18,90.07c.23.17.31.47.2.73l-.54,1.19c-.28.61-6.84,14.89-16.43,18.17-3.14,1.12-6.44,1.74-9.77,1.83h-.26l-2.19-.09c-.33-.01-.59-.29-.57-.61,0-.06.01-.12.03-.18l.73-2.06c.89-2.46,1.91-5.52,2.01-6.16.55-3.88,4.96-13.8,15.04-19.69l.91-.53c.2-.12.46-.11.65.03l10.18,7.37Z" class="cls-2" id="Path_149700"></path><path d="M56.84,91.08s-6.34,13.98-15.14,17c-2.96,1.08-6.08,1.66-9.23,1.71,0,0,1.95-5.39,2.12-6.59.46-3.17,4.34-12.48,13.98-18.11l8.27,5.99Z" class="cls-3" id="Path_149701"></path><path d="M50.23,84.05c.11.13.14.31.1.48l-.22.81c-1.58,5.14-4.97,9.55-9.56,12.39-7.11,4.07-11.75,4.42-18.73,4.67l-3.14.11c-.3.01-.55-.22-.56-.52,0-.11.03-.22.08-.31l1.68-2.65c.65-1.03,1.1-2.18,1.34-3.37.63-4.66,2.48-9.07,5.37-12.79,1.69-1.95,5.06-3.39,10.31-4.4,2.28-.43,4.59-.74,6.9-.93l.87-.06c.18-.01.35.06.46.2l5.11,6.37Z" class="cls-2" id="Path_149702"></path><path d="M47.98,84.76c-1.43,4.58-4.45,8.51-8.53,11.07-6.51,3.72-10.49,4.12-17.71,4.38.83-1.32,1.39-2.79,1.67-4.33.58-4.21,2.24-8.2,4.84-11.57,3.23-3.72,15.69-4.58,15.69-4.58l4.04,5.03Z" class="cls-3" id="Path_149703"></path><path d="M34.63,70.78c2.45,0,4.88.46,7.15,1.36l.58.23c.11.04.2.12.25.23l4.53,8.37c.08.15.08.33,0,.48l-.48.82c-2.35,3.67-5.85,6.45-9.96,7.92-3.58,1.25-7.35,1.89-11.15,1.88-5.91-.13-11.74-1.34-17.21-3.57l-3.35-1.29c-.26-.1-.38-.39-.28-.64.04-.11.12-.19.22-.25l3.12-1.77c1.88-1.01,3.67-2.18,5.35-3.48,1.01-1.05,10.2-10.28,21.24-10.28" class="cls-2" id="Path_149704"></path><path d="M44.75,81.17c-2.08,3.21-5.17,5.65-8.78,6.94-5.95,2.06-14.33,3.17-26.85-1.66,2.05-1.13,4.01-2.43,5.85-3.87,1.16-1.21,13.32-13.43,25.99-8.4l3.79,6.99Z" class="cls-3" id="Path_149705"></path><path d="M66.08,90.37c.19.03.35.17.4.35l.3,1.04c.14.49,3.43,12.18-3.33,19.93-6.2,7.09-10,8.93-10.41,9.11l-1.78.8c-.25.11-.54,0-.66-.25,0-.02-.02-.04-.02-.06l-2.35-7.97c-.91-3.56-.83-7.3.23-10.82,1.29-4.73,5.65-10.94,8.39-12.92l.57-.41c.11-.08.24-.11.37-.09l8.3,1.29Z" class="cls-2" id="Path_149706"></path><path d="M64.67,92.37s3.18,10.94-2.88,17.88-9.66,8.55-9.66,8.55l-1.8-6.1c-.79-3.17-.71-6.5.24-9.63,1.14-4.19,5.16-9.99,7.56-11.72l6.53,1.02Z" class="cls-3" id="Path_149707"></path><path d="M90.12,77.19c2.64.84,5.07,2.21,7.15,4.03,2.08,1.68,3.93,3.62,5.5,5.78,2.65,3.82,3.78,10.78,3.92,12.3.11,1.24.69,4.91.9,6.22l.34,2.11c.06.36-.19.7-.55.76,0,0,0,0,0,0-.07.01-.14.01-.21,0l-2.12-.35c-7.16-1.19-12.19-2.83-18.23-8.09-3.64-3.24-6.16-7.53-7.21-12.28l-.14-.77c-.04-.21.03-.42.18-.58l8.97-9.16c.16-.17.41-.24.63-.18l.86.22Z" class="cls-2" id="Path_149708"></path><path d="M81.78,87.26c.96,4.25,3.23,8.1,6.49,11.01,5.37,4.68,9.88,6.37,17.15,7.58,0,0-.78-4.78-.92-6.37s-1.26-7.97-3.54-11.25-7.51-7.97-11.38-8.93l-7.8,7.96Z" class="cls-3" id="Path_149709"></path><path d="M34.06,80.28c1.26-.54,5.46-2.76,7.54-3.88h.01c.13.29.26.58.4.86.24.49.16,1.07-.21,1.48-.66.74-1.31,1.45-1.61,1.75-.73.72-8.32,5.14-4.55,4.09,2.57-.97,4.97-2.34,7.09-4.08.38-.3.94-.23,1.23.15,0,0,0,0,0,0l.04.05c2.07,3.03,4.73,5.62,7.82,7.61.42.27.54.82.28,1.24-1.24,1.91-2.96,4.6-3.58,5.61-.78,1.28-2.27,3.3-2.88,4.1-.03.05-.02.11.03.13.03.02.07.02.1,0,2.51-1.5,6.32-6.56,8.16-9.13.22-.31.62-.41.96-.26,1.12.53,2.27.99,3.46,1.36.43.14.66.59.53,1.02-.7,2.3-2.03,6.61-2.55,8.17-.44,1.41-.76,2.86-.95,4.33,0,.08.05.16.13.17.06,0,.11-.02.14-.06,1.2-1.87,3.25-7.75,4.35-10.46.28-.71.61-1.4,1-2.06.13-.21.38-.32.62-.27h0c.26.05.44.29.4.55-.12.92-.31,2.4-.62,4.59-.66,3.48-1.63,6.9-2.89,10.21-.02.05,0,.11.06.13.04.02.09,0,.12-.03,2.85-3.65,4.75-11.4,5.41-14.42.08-.38.43-.64.82-.62.57.04,1.14.05,1.71.05.41,0,.82,0,1.22-.03.36-.02.69.2.8.54.14.41.29.87.4,1.23.28.91,2.37,9.4,3.24,11.4s.41-.64.04-3.91c-.3-2.66-1.5-7.7-1.94-9.49h0c1.37-.19,2.72-.48,4.04-.87.58-.17,1.2.07,1.52.58,1.82,3.18,3.9,6.21,6.2,9.06.13.14.35.15.49.02,0,0,0,0,0,0,.03-.03.06-.06.07-.1.11-.21.1-.47-.03-.67-.78-1.22-3.52-5.52-4.26-6.76-.39-.7-.72-1.44-.96-2.21-.17-.5.07-1.05.55-1.27,1.86-.85,3.61-1.9,5.24-3.14.51-.39,1.24-.29,1.63.22,0,0,0,0,0,0l.02.03c.25.34.51.69.78,1.02,1.52,1.9,3.18,3.69,4.96,5.35.06.05.15.04.19-.02,0,0,0,0,0,0,.03-.04.04-.1.02-.14-.22-.48-.64-1.32-1.38-2.6-.78-1.34-2.39-3.73-3.52-5.37-.2-.29-.16-.67.09-.92h0c.34-.35.88-.35,1.22-.01h0c1.01,1,2.31,2.25,3.25,2.99,1.78,1.41,6.43,5.49,6.84,5.77s-1.5-2.64-2.33-3.41-5.1-5.22-5.74-5.95c-.2-.23-.47-.58-.76-.95-.29-.39-.29-.92,0-1.31v-.02c.38-.49,1.07-.6,1.57-.24,1.16.82,2.54,1.81,3.11,2.2,1.05.73,3.6,1.27,2.74.45-.55-.52-3.05-2.47-4.82-3.86-.59-.45-.77-1.26-.41-1.91.34-.63.66-1.28.95-1.94.23-.53.84-.79,1.38-.59,2.46.98,4.98,1.81,7.55,2.47,2.69.5,5.97.73,3.69.23-3.51-1.04-6.94-2.33-10.26-3.86-.29-.16-.65-.34-1.02-.51-.23-.1-.34-.36-.27-.59.13-.41.57-.64.98-.52.04.01.07.03.11.04,2.59,1.25,5.3,2.23,8.09,2.94,3.6.88,7.28,1.36,10.98,1.45.91,0,1.41-.77.23-1s-10.94-.95-16.18-3.95l-3.43-2.04h0c.54-2.84.63-5.74.26-8.6h-54.31c-.15,1.15-.22,2.31-.22,3.48,0,3.36.62,6.7,1.83,9.84h0c-2.47,1.31-7.2,3.86-8.4,4.74-1.63,1.19-.36,1.05,1.34.32" class="cls-2" id="Path_149710"></path><path d="M35.01,68.83l-5.01.11h-.03c-.32,0-.59-.25-.6-.57,0-.3.22-.56.51-.59,1.66-.19,3.32-.26,4.99-.2.71.07,1.43.04,2.14-.09.72-.13,1.33-.59,1.66-1.24.2-.46.19-.99.53-1.4.15-.19.38-.29.61-.27.36.04.51.37.62.67.41,1.17,1.35,5.29-.41,5.43-.66.05-1.45-1.17-2.02-1.43-.96-.38-1.99-.53-3.01-.45" class="cls-2" id="Path_149711"></path><path d="M101.92,64.57c1.7-.03,3.38-.36,4.96-1,.18-.07.33-.21.41-.38.06-.29-.1-.58-.38-.67-.27-.08-.56-.09-.84-.03-1.94.27-3.88.56-5.82.84-.74.09-1.47.24-2.19.44-.97.46-2.03.68-3.09.65-.34-.1-.69-.17-1.05-.22-.37-.04-.71.18-.84.52,0,.28.04.56.15.82.41,2.18,1.72.91,3.05.3,1.8-.72,3.71-1.15,5.64-1.28" class="cls-2" id="Path_149712"></path><path d="M40.43,57.77c-3.23-.02-6.43-.53-9.51-1.51-5.69-1.75-10.66-5.31-14.14-10.13-1.07-1.52-2.33-2.89-3.75-4.09l-1.49-1.22c-.25-.21-.29-.57-.08-.82.02-.03.05-.05.07-.07l1.47-1.25c.33-.27,3.37-2.7,10.11-2.7.65,0,1.33.02,2.01.07,3.44.23,8.29,2.21,14.39,5.88,4.41,2.65,7.83,5.21,7.98,5.32l.96.73c.21.16.29.44.2.69l-3.17,8.29c-.07.19-.24.33-.43.37l-.87.18c-1.24.22-2.5.31-3.76.3v-.02Z" class="cls-2" id="Path_149713"></path><path d="M46.17,48.98s-13.73-10.26-21.19-10.76-10.55,2.11-10.55,2.11c1.59,1.34,3,2.88,4.19,4.58,3.2,4.41,7.75,7.65,12.97,9.26,3.91,1.33,8.07,1.73,12.16,1.16l2.42-6.34Z" class="cls-3" id="Path_149714"></path><path d="M60.36,42.2c-1.44-2.15-2.76-4.39-3.93-6.7-2.68-5.29-3.64-9.24-2.92-12.06,1.14-4.06,2.74-7.97,4.77-11.66l1.01-1.78c.18-.32.58-.43.9-.25.05.03.11.07.15.11l1.43,1.46c2.01,2.04,3.9,4.2,5.66,6.46,1.66,2.26,5.56,7.55,3.95,22.99l-.2,1.85-10.13.6-.71-1.02Z" class="cls-2" id="Path_149715"></path><path d="M62.18,40.96s-7.91-11.54-6.53-16.98c1.09-3.87,2.62-7.6,4.56-11.13,1.94,1.97,3.76,4.04,5.46,6.22,1.98,2.69,4.98,7.65,3.54,21.46l-7.02.42Z" class="cls-3" id="Path_149716"></path><path d="M52.48,46.4c-12.69-6.26-14.33-17.61-14.95-21.88l-.05-.33c-.08-.54-.65-2.92-1.04-4.45l-.55-2.2c-.08-.32.12-.65.44-.73h0c.07-.02.14-.02.21-.02l2.26.22c4.46.66,8.72,2.32,12.45,4.84,6.49,4.27,12.05,17.83,12.28,18.4l.59,1.46c.12.31-.02.65-.33.78l-10.17,4.23c-.16.07-.34.06-.5-.02l-.65-.32Z" class="cls-2" id="Path_149717"></path><path d="M61.5,41.08s-5.46-13.45-11.46-17.4c-3.44-2.32-7.35-3.85-11.46-4.48,0,0,.95,3.78,1.08,4.67.55,3.71,1.8,14.65,13.79,20.57l8.04-3.36Z" class="cls-3" id="Path_149718"></path><path d="M31.63,65.99c-1.97,0-3.94-.09-5.91-.31-2.04-.21-4.04-.66-5.97-1.35-1.65-.64-3.21-1.5-4.63-2.55-3.39-2.59-6.28-5.78-8.5-9.41l-1.22-2.08c-.16-.28-.07-.63.21-.79.07-.04.14-.06.21-.07l2.39-.32c4.07-.51,8.16-.78,12.26-.79,3.63-.07,7.25.28,10.8,1.03,9.14,2.18,13.1,6.11,13.27,6.28l.74.74c.16.16.21.4.13.62l-3.1,7.95c-.08.2-.25.34-.46.37l-.95.13c-3.08.38-6.18.58-9.29.58h0Z" class="cls-2" id="Path_149719"></path><path d="M42.99,57.15s-3.58-3.62-12.21-5.68c-8.63-2.06-22.25-.2-22.25-.2,2.24,3.66,5.21,6.82,8.71,9.31,1.04.69,2.15,1.26,3.31,1.71,1.96.69,4,1.12,6.08,1.29,4.67.36,9.36.25,14.01-.33l2.37-6.09Z" class="cls-3" id="Path_149720"></path><path d="M74.16,43.27c-.23-.17-.31-.47-.2-.73l.54-1.19c.28-.61,6.84-14.89,16.43-18.17,3.14-1.12,6.44-1.74,9.77-1.83h.26l2.19.09c.33.01.59.29.57.61,0,.06-.01.12-.03.18l-.73,2.06c-.89,2.47-1.91,5.52-2.01,6.16-.55,3.88-4.96,13.8-15.04,19.69l-.91.53c-.2.12-.46.11-.65-.03l-10.18-7.37Z" class="cls-2" id="Path_149721"></path><path d="M76.51,42.26s6.34-13.98,15.14-17c2.96-1.08,6.08-1.66,9.23-1.71,0,0-1.95,5.39-2.12,6.59-.45,3.17-4.34,12.47-13.97,18.1l-8.28-5.98Z" class="cls-3" id="Path_149722"></path><path d="M83.11,49.29c-.11-.13-.15-.31-.1-.48l.22-.81c1.58-5.14,4.97-9.55,9.56-12.39,7.11-4.07,11.75-4.42,18.73-4.67l3.14-.11c.3,0,.54.23.55.52,0,.11-.03.21-.08.3l-1.68,2.65c-.65,1.03-1.1,2.18-1.34,3.37-.63,4.66-2.48,9.07-5.37,12.79-1.69,1.95-5.06,3.39-10.3,4.4-2.28.44-4.59.74-6.9.93l-.87.06c-.18.01-.35-.06-.46-.2l-5.1-6.36Z" class="cls-2" id="Path_149723"></path><path d="M85.36,48.58c1.43-4.58,4.45-8.51,8.53-11.07,6.51-3.72,10.49-4.12,17.71-4.38-.83,1.32-1.39,2.79-1.67,4.33-.58,4.21-2.24,8.2-4.84,11.57-3.23,3.72-15.69,4.58-15.69,4.58l-4.04-5.02Z" class="cls-3" id="Path_149724"></path><path d="M98.71,62.56c-2.45,0-4.88-.46-7.15-1.36l-.58-.23c-.11-.04-.2-.12-.25-.23l-4.53-8.37c-.08-.15-.08-.33,0-.48l.48-.82c2.35-3.67,5.85-6.45,9.96-7.92,3.58-1.25,7.35-1.89,11.15-1.88,5.91.13,11.74,1.34,17.21,3.57l3.35,1.29c.26.1.38.39.28.64-.04.11-.12.19-.22.25l-3.12,1.77c-1.88,1.01-3.67,2.18-5.36,3.49-1.01,1.05-10.2,10.28-21.24,10.28" class="cls-2" id="Path_149725"></path><path d="M88.59,52.16c2.08-3.21,5.17-5.65,8.78-6.94,5.95-2.06,14.33-3.17,26.85,1.66-2.05,1.13-4.01,2.43-5.85,3.87-1.16,1.21-13.32,13.43-25.99,8.4l-3.79-6.99Z" class="cls-3" id="Path_149726"></path><path d="M67.26,42.97c-.19-.03-.35-.17-.4-.35l-.3-1.04c-.14-.49-3.43-12.18,3.33-19.93,6.2-7.09,10-8.93,10.41-9.11l1.78-.8c.25-.11.54,0,.66.25,0,.02.02.04.02.06l2.35,7.97c.91,3.56.84,7.3-.22,10.82-1.29,4.73-5.65,10.94-8.39,12.92l-.57.41c-.11.08-.24.11-.37.09l-8.31-1.29Z" class="cls-2" id="Path_149727"></path><path d="M68.67,40.96s-3.18-10.94,2.88-17.88c6.06-6.94,9.66-8.55,9.66-8.55l1.8,6.1c.79,3.17.71,6.5-.24,9.63-1.14,4.19-5.16,9.99-7.56,11.72l-6.53-1.02Z" class="cls-3" id="Path_149728"></path><path d="M43.22,56.15c-2.64-.84-5.07-2.21-7.15-4.03-2.08-1.68-3.93-3.62-5.5-5.78-2.65-3.82-3.78-10.78-3.92-12.3-.11-1.24-.69-4.91-.9-6.22l-.34-2.11c-.06-.36.18-.7.54-.76.07-.01.15-.01.22,0l2.12.35c7.16,1.19,12.19,2.83,18.23,8.09,3.64,3.24,6.16,7.53,7.21,12.28l.14.78c.04.21-.03.42-.18.57l-8.96,9.16c-.16.17-.41.24-.63.18l-.86-.21Z" class="cls-2" id="Path_149729"></path><path d="M51.57,46.08c-.96-4.25-3.23-8.1-6.49-11.01-5.37-4.68-9.88-6.37-17.15-7.58,0,0,.78,4.78.92,6.37s1.26,7.97,3.53,11.25c2.28,3.28,7.51,7.97,11.38,8.93l7.8-7.96Z" class="cls-3" id="Path_149730"></path><path d="M99.29,53.06c-1.26.54-5.46,2.76-7.55,3.88h0c-.13-.29-.26-.58-.4-.86-.24-.49-.16-1.07.21-1.48.66-.74,1.31-1.45,1.61-1.75.73-.72,8.32-5.14,4.55-4.09-2.57.97-4.97,2.34-7.09,4.08-.38.3-.94.23-1.23-.15,0,0,0,0,0,0l-.04-.05c-2.07-3.03-4.73-5.62-7.83-7.61-.42-.27-.54-.82-.28-1.24,1.24-1.91,2.96-4.6,3.58-5.61.79-1.28,2.27-3.3,2.88-4.1.03-.04.02-.1-.02-.14,0,0,0,0,0,0-.03-.02-.08-.02-.11,0-2.51,1.5-6.32,6.56-8.16,9.13-.22.31-.63.42-.97.26-1.12-.53-2.27-.99-3.45-1.36-.43-.14-.67-.59-.53-1.02.7-2.3,2.03-6.61,2.55-8.17.44-1.41.76-2.86.95-4.33.01-.08-.05-.16-.13-.17,0,0,0,0,0,0-.06,0-.11.02-.15.07-1.2,1.87-3.25,7.75-4.35,10.46-.27.71-.61,1.4-1,2.06-.13.21-.38.32-.62.27h0c-.26-.05-.44-.29-.4-.55.11-.92.31-2.4.62-4.59.66-3.48,1.63-6.9,2.89-10.21.02-.05,0-.11-.06-.13-.04-.02-.09,0-.12.03-2.85,3.65-4.75,11.4-5.41,14.42-.08.38-.43.64-.82.62-.56-.04-1.13-.05-1.71-.05-.41,0-.82,0-1.22.03-.36.02-.69-.2-.8-.54-.14-.41-.29-.87-.4-1.23-.28-.91-2.37-9.4-3.24-11.4s-.41.64-.05,3.91c.3,2.66,1.5,7.71,1.94,9.49h0c-1.37.19-2.72.48-4.04.87-.58.17-1.21-.07-1.52-.59-1.82-3.18-3.9-6.2-6.2-9.06-.13-.14-.35-.15-.49-.02,0,0,0,0,0,0-.03.03-.06.06-.07.1-.11.21-.1.47.03.67.78,1.22,3.52,5.52,4.26,6.76.39.7.72,1.44.96,2.21.17.5-.07,1.05-.55,1.27-1.86.85-3.61,1.9-5.24,3.14-.51.39-1.24.29-1.63-.22,0,0,0,0,0,0,0,0-.01-.02-.02-.03-.25-.34-.51-.69-.78-1.02-1.52-1.9-3.18-3.69-4.96-5.35-.06-.05-.15-.04-.19.02-.03.04-.04.09-.02.14.22.48.64,1.32,1.38,2.6.78,1.34,2.39,3.73,3.52,5.37.2.29.16.67-.09.92h0c-.34.35-.88.35-1.22,0-1.01-1-2.31-2.24-3.25-2.99-1.78-1.41-6.43-5.49-6.84-5.77s1.5,2.63,2.32,3.41,5.1,5.22,5.74,5.95c.19.23.47.58.75.95.29.39.29.92,0,1.31v.02c-.38.49-1.07.6-1.57.24-1.16-.82-2.54-1.81-3.1-2.2-1.05-.73-3.6-1.27-2.74-.45.55.52,3.05,2.47,4.82,3.85.59.45.76,1.26.41,1.92-.34.63-.66,1.28-.95,1.94-.23.53-.84.78-1.38.59-2.46-.98-4.98-1.81-7.54-2.47-2.69-.5-5.97-.73-3.69-.23,3.51,1.04,6.93,2.33,10.25,3.86.29.16.65.34,1.03.51.23.1.34.36.27.59-.13.41-.56.64-.98.51,0,0,0,0,0,0-.04-.01-.07-.02-.11-.04-2.59-1.25-5.3-2.24-8.09-2.94-3.6-.88-7.28-1.36-10.98-1.45-.91,0-1.41.77-.23,1s10.94.95,16.18,3.95l3.43,2.04h0c-.54,2.84-.63,5.74-.26,8.6h54.3s0,0,0,0c.15-1.15.22-2.31.22-3.48,0-3.36-.62-6.7-1.83-9.83h0c2.47-1.31,7.2-3.86,8.4-4.74,1.63-1.19.36-1.05-1.34-.33" class="cls-2" id="Path_149731"></path><path d="M86.83,69.74c-.09-.16-.11-.34-.06-.51.24-.46.79-.65,1.27-.44.5.29.91.7,1.19,1.2-.52.25-1.1.36-1.67.32-.31-.08-.57-.29-.72-.56" class="cls-3" id="Path_149732"></path><path d="M61.71,45.99c-.32.48-.5,1.03-.53,1.6.1.58.53,1,.96.92.18-.03.33-.14.43-.29.17-.27.24-.59.17-.9-.22-.53-.58-.99-1.04-1.34" class="cls-3" id="Path_149733"></path><path d="M60.83,52.54c-.32.48-.5,1.03-.53,1.6.1.58.53,1,.96.92.18-.03.33-.14.43-.29.17-.27.24-.59.17-.9-.22-.53-.58-.99-1.04-1.34" class="cls-3" id="Path_149734"></path><path d="M54.08,50.62c-.39-.42-.89-.74-1.45-.91-.13.56-.11,1.14.05,1.68.2.48.75.72,1.24.54.15-.09.26-.24.3-.41.07-.31.02-.63-.15-.91" class="cls-3" id="Path_149735"></path><path d="M47.59,56.61c-.53-.24-1.11-.34-1.69-.29.09.56.34,1.09.7,1.53.37.36.96.38,1.35.03.11-.14.15-.32.12-.49-.05-.31-.23-.59-.48-.78" class="cls-3" id="Path_149736"></path><path d="M47.15,64.5c-.58.03-1.14.21-1.63.52.34.46.8.82,1.33,1.04.5.15,1.03-.11,1.21-.59.03-.17-.02-.35-.12-.49-.19-.25-.48-.42-.79-.47" class="cls-3" id="Path_149737"></path><path d="M56.82,59.94c-.45-.36-.99-.61-1.56-.7-.05.57.05,1.14.3,1.66.27.44.84.61,1.3.37.14-.11.22-.27.24-.45.03-.32-.07-.63-.28-.88" class="cls-3" id="Path_149738"></path><path d="M68.89,56.55c-.02-.58-.19-1.14-.49-1.63-.46.34-.83.79-1.06,1.31-.16.49.09,1.03.58,1.22.17.03.35,0,.49-.11.26-.19.43-.47.48-.78" class="cls-3" id="Path_149739"></path><path d="M78.56,69.42c.55-.17,1.05-.49,1.45-.91-.45-.36-.98-.59-1.55-.67-.59.05-1.05.44-1.02.88.02.17.1.34.24.45.25.2.57.29.89.25" class="cls-3" id="Path_149740"></path><path d="M64.58,61.79c-.34-.47-.79-.84-1.32-1.09-.2.54-.25,1.11-.15,1.68.14.5.65.8,1.16.69.16-.07.29-.2.35-.37.11-.3.1-.63-.04-.92" class="cls-3" id="Path_149741"></path><path d="M69.27,72.75c.33.48.77.86,1.3,1.12.21-.53.28-1.11.19-1.67-.22-.55-.73-.88-1.14-.72-.16.07-.29.2-.36.36-.12.3-.11.63.01.92" class="cls-3" id="Path_149742"></path><path d="M62.48,68.77c-.2.54-.25,1.13-.16,1.7.56-.14,1.07-.42,1.48-.82.33-.4.3-.99-.08-1.34-.15-.09-.33-.12-.5-.08-.31.08-.58.28-.74.55" class="cls-3" id="Path_149743"></path><path d="M70.5,66.65c.17-.55.19-1.14.07-1.71-.55.17-1.04.47-1.43.89-.32.41-.26,1,.14,1.34.15.09.34.11.5.06.31-.09.56-.3.71-.58" class="cls-3" id="Path_149744"></path><path d="M76.08,62.85c.19-.55.23-1.13.12-1.7-.55.15-1.06.44-1.46.84-.33.4-.28.99.1,1.34.15.09.33.12.5.07.31-.08.57-.28.73-.56" class="cls-3" id="Path_149745"></path><path d="M74.88,53.51c-.52.24-.97.62-1.31,1.09-.13.29-.14.62-.02.91.06.17.19.3.36.37.51.11,1.01-.2,1.15-.69.09-.56.03-1.14-.17-1.68" class="cls-3" id="Path_149746"></path><path d="M81.3,63.05c0,.18.07.35.2.48.43.28,1.01.18,1.32-.23.29-.49.45-1.05.45-1.62-.58.04-1.13.22-1.61.54-.23.22-.35.53-.36.84" class="cls-3" id="Path_149747"></path><path d="M80.08,51.2c.19-.54.24-1.12.14-1.68-.56.15-1.07.44-1.49.84-.18.26-.25.58-.19.9.03.17.14.33.28.42.48.2,1.03-.02,1.26-.48" class="cls-3" id="Path_149748"></path><path d="M85.03,55.71h0c-.25.2-.41.48-.46.8-.02.17.03.35.14.48.4.33.99.3,1.35-.08.35-.45.57-.99.65-1.56-.58-.03-1.16.09-1.68.35" class="cls-3" id="Path_149749"></path><path d="M70.66,47.34c-.18.48.04,1.03.52,1.24.17.04.36,0,.51-.09.27-.17.45-.44.52-.75,0-.58-.13-1.14-.41-1.65-.48.31-.87.74-1.13,1.25" class="cls-3" id="Path_149750"></path><path d="M61.45,87.35c-.31-.48-.5-1.03-.53-1.6.1-.59.53-1,.96-.92.18.03.33.14.43.29.17.27.24.59.17.9-.22.53-.58.99-1.04,1.34" class="cls-3" id="Path_149751"></path><path d="M66.34,80.27c-.31-.48-.5-1.03-.53-1.6.1-.59.53-1,.96-.92.18.03.33.14.43.29.17.27.24.59.17.9-.22.53-.58.99-1.04,1.34" class="cls-3" id="Path_149752"></path><path d="M52.93,70.04c.25-.51.64-.95,1.11-1.27.46-.24,1.03-.08,1.29.36.06.17.05.35-.03.51-.14.28-.39.5-.69.61-.57.08-1.16,0-1.69-.21" class="cls-3" id="Path_149753"></path><path d="M53.82,82.72c-.39.42-.89.74-1.45.91-.13-.56-.11-1.14.06-1.68.2-.48.75-.72,1.24-.54.15.09.26.24.3.41.07.31.02.63-.15.9" class="cls-3" id="Path_149754"></path><path d="M58.98,77.14c-.39.42-.89.74-1.45.91-.13-.56-.11-1.14.06-1.68.2-.48.75-.72,1.24-.54.15.09.26.24.3.41.07.31.02.63-.15.9" class="cls-3" id="Path_149755"></path><path d="M47.34,76.74c-.53.24-1.11.34-1.69.29.09-.56.34-1.09.7-1.53.37-.36.96-.38,1.35-.03.11.14.15.32.12.49-.05.31-.23.59-.48.78" class="cls-3" id="Path_149756"></path><path d="M77.17,77.27c-.57-.07-1.12-.29-1.58-.64-.21-.24-.32-.55-.3-.87.01-.18.09-.34.23-.46.45-.25,1.02-.12,1.3.31.26.51.38,1.08.35,1.65" class="cls-3" id="Path_149757"></path><path d="M79.83,82.14c.19.54.24,1.12.14,1.68-.56-.15-1.07-.44-1.49-.84-.18-.26-.25-.59-.19-.9.03-.17.14-.32.28-.42.48-.2,1.03.02,1.26.48" class="cls-3" id="Path_149758"></path><path d="M84.77,77.63h0c-.25-.2-.41-.48-.46-.8-.02-.17.03-.35.14-.48.4-.33.99-.3,1.35.08.35.45.57.99.65,1.56-.58.03-1.16-.09-1.68-.35" class="cls-3" id="Path_149759"></path><path d="M70.4,86c-.18-.48.04-1.03.52-1.24.17-.04.36,0,.51.09.27.17.45.44.52.75,0,.58-.13,1.14-.41,1.65-.48-.31-.87-.74-1.13-1.25" class="cls-3" id="Path_149760"></path></g></svg>